<mxfile host="app.diagrams.net" agent="Mozilla/5.0 (Windows NT 10.0; Win64; x64) AppleWebKit/537.36 (KHTML, like Gecko) Chrome/128.0.0.0 Safari/537.36" version="24.7.12">
  <diagram name="Halaman-1" id="rs-E0tT7eWCv6tY4ZHQA">
    <mxGraphModel dx="1434" dy="772" grid="1" gridSize="10" guides="1" tooltips="1" connect="1" arrows="1" fold="1" page="1" pageScale="1" pageWidth="827" pageHeight="1169" math="0" shadow="0">
      <root>
        <mxCell id="0" />
        <mxCell id="1" parent="0" />
        <mxCell id="4b2k7UsBIuYoZM2IhbC0-3" style="edgeStyle=orthogonalEdgeStyle;rounded=0;orthogonalLoop=1;jettySize=auto;html=1;exitX=1;exitY=0.5;exitDx=0;exitDy=0;" edge="1" parent="1" source="4b2k7UsBIuYoZM2IhbC0-1" target="4b2k7UsBIuYoZM2IhbC0-2">
          <mxGeometry relative="1" as="geometry" />
        </mxCell>
        <mxCell id="4b2k7UsBIuYoZM2IhbC0-1" value="USER" style="rounded=1;whiteSpace=wrap;html=1;" vertex="1" parent="1">
          <mxGeometry x="90" y="340" width="120" height="60" as="geometry" />
        </mxCell>
        <mxCell id="4b2k7UsBIuYoZM2IhbC0-7" style="edgeStyle=orthogonalEdgeStyle;rounded=0;orthogonalLoop=1;jettySize=auto;html=1;entryX=0;entryY=0.5;entryDx=0;entryDy=0;" edge="1" parent="1" source="4b2k7UsBIuYoZM2IhbC0-2" target="4b2k7UsBIuYoZM2IhbC0-6">
          <mxGeometry relative="1" as="geometry" />
        </mxCell>
        <mxCell id="4b2k7UsBIuYoZM2IhbC0-2" value="MASUK KELAS" style="rounded=1;whiteSpace=wrap;html=1;" vertex="1" parent="1">
          <mxGeometry x="294" y="340" width="120" height="60" as="geometry" />
        </mxCell>
        <mxCell id="4b2k7UsBIuYoZM2IhbC0-4" value="ISI KEHADIRAN" style="rounded=1;whiteSpace=wrap;html=1;" vertex="1" parent="1">
          <mxGeometry x="480" y="260" width="120" height="60" as="geometry" />
        </mxCell>
        <mxCell id="4b2k7UsBIuYoZM2IhbC0-5" style="edgeStyle=orthogonalEdgeStyle;rounded=0;orthogonalLoop=1;jettySize=auto;html=1;exitX=1;exitY=0.5;exitDx=0;exitDy=0;entryX=-0.008;entryY=0.4;entryDx=0;entryDy=0;entryPerimeter=0;" edge="1" parent="1" source="4b2k7UsBIuYoZM2IhbC0-2" target="4b2k7UsBIuYoZM2IhbC0-4">
          <mxGeometry relative="1" as="geometry" />
        </mxCell>
        <mxCell id="4b2k7UsBIuYoZM2IhbC0-6" value="LIHAT DAFTAR KEHADIRAN" style="rounded=1;whiteSpace=wrap;html=1;" vertex="1" parent="1">
          <mxGeometry x="480" y="410" width="120" height="60" as="geometry" />
        </mxCell>
      </root>
    </mxGraphModel>
  </diagram>
</mxfile>
